<?xml version="1.0" encoding="UTF-8"?>
<svg width="600px" height="245px" viewBox="0 0 600 245" version="1.1" xmlns="http://www.w3.org/2000/svg" xmlns:xlink="http://www.w3.org/1999/xlink">
    <!-- Generator: Sketch 40.1 (33804) - http://www.bohemiancoding.com/sketch -->
    <title>trayn_white</title>
    <desc>Created with Sketch.</desc>
    <defs>
	<polygon id="path-1" points="600 122.609111 600 244.94 0 244.94 0 122.609111 0 0.278222222 600 0.278222222 600 122.609111"></polygon>
    </defs>
    <g id="Page-1" stroke="none" stroke-width="1" fill="none" fill-rule="evenodd">
	<g id="trayn_white">
	    <polyline id="Fill-1" fill="#FFFFFF" points="175.712 50.566 175.712 89.453 192.429 89.453 192.429 117.258 175.712 117.258 175.712 202.225 145.575 202.225 145.575 50.566 175.712 50.566"></polyline>
	    <path d="M231.015,202.225 L200.878,202.225 L200.878,119.591 C200.878,99.759 215.655,89.453 234.125,89.453 L255.902,89.453 L255.902,117.452 L244.042,117.452 C235.876,117.452 231.015,120.758 231.015,129.702 L231.015,202.225" id="Fill-2" fill="#FFFFFF"></path>
	    <g id="Group-8">
		<mask id="mask-2" fill="white">
		    <use xlink:href="#path-1"></use>
		</mask>
		<g id="Clip-4"></g>
		<path d="M333.318,162.171 L333.318,158.866 L296.961,158.866 C291.711,158.866 286.072,160.81 286.072,166.838 C286.072,172.673 291.711,174.421 296.961,174.421 L321.849,174.421 C328.46,174.421 333.318,170.92 333.318,162.171 L333.318,162.171 Z M255.935,172.088 L255.935,159.644 C255.935,139.811 270.712,130.869 289.183,130.869 L333.318,130.869 L333.318,129.702 C333.318,120.759 328.458,117.452 321.847,117.452 L271.331,117.452 L271.331,89.453 L330.206,89.453 C348.678,89.453 363.456,98.398 363.456,118.23 L363.456,172.088 C363.456,191.92 348.678,202.225 330.206,202.225 L289.183,202.225 C270.712,202.225 255.935,191.919 255.935,172.088 L255.935,172.088 Z" id="Fill-3" fill="#FFFFFF" mask="url(#mask-2)"></path>
		<path d="M451.068,174.227 L451.068,89.453 L481.205,89.453 L481.205,216.225 C481.205,236.057 466.428,245 447.957,245 L389.08,245 L389.08,217.002 L439.599,217.002 C446.208,217.002 451.07,213.697 451.07,204.752 L451.07,202.225 L406.933,202.225 C388.462,202.225 373.685,193.282 373.685,173.449 L373.685,89.453 L403.822,89.453 L403.822,166.255 C403.822,172.283 409.461,174.227 414.711,174.227 L451.068,174.227" id="Fill-5" fill="#FFFFFF" mask="url(#mask-2)"></path>
		<path d="M569.863,129.701 C569.863,120.758 565.003,117.451 556.836,117.451 L534.67,117.451 C528.062,117.451 523.198,120.757 523.198,129.701 L523.198,202.225 L493.063,202.225 L493.063,118.034 C493.063,98.202 507.838,89.452 526.31,89.452 L566.751,89.452 C585.223,89.452 600,98.591 600,118.424 L600,202.223 L569.862,202.223 L569.862,129.701 L569.863,129.701" id="Fill-6" fill="#FFFFFF" mask="url(#mask-2)"></path>
		<path d="M103.345,196.545 C102.955,196.545 102.682,196.522 102.632,196.519 L64.812,196.501 L10.273,196.501 C8.981,196.593 7.258,196.541 6.372,196.106 C5.892,195.871 5.68,195.644 5.68,194.92 C5.68,192.858 7.086,192.062 7.992,191.764 L56.177,191.764 L104.293,191.869 C105.086,192.062 106.943,192.755 106.943,194.92 C106.943,196.334 104.692,196.545 103.345,196.545 L103.345,196.545 Z M19.109,177.882 C21.615,175.563 24.221,173.8 26.518,172.246 C30.538,169.52 33.714,167.371 33.714,163.755 C33.714,160.616 30.809,156.051 28.229,152.618 L83.943,152.618 C80.339,156.999 78.906,160.294 78.906,163.755 C78.906,167.506 82.205,169.762 86.384,172.62 C88.537,174.094 90.978,175.763 93.613,177.975 C97.01,180.822 98.9,183.834 99.934,186.087 L56.229,186.087 L13.048,185.993 C14.233,183.649 16.152,180.617 19.109,177.882 L19.109,177.882 Z M16.861,146.935 C16.279,146.274 15.481,145.093 15.481,143.582 C15.481,142.068 16.281,140.883 16.859,140.226 L94.178,140.226 C95.233,140.998 96.713,142.405 96.713,143.582 C96.713,144.883 95.786,146.157 95.053,146.935 L16.861,146.935 L16.861,146.935 Z M16.515,48.908 C16.847,48.837 17.176,48.77 17.499,48.7 C20.104,48.141 22.563,47.72 24.313,48.47 C23.473,48.93 22.574,49.542 21.783,50.418 C21.325,50.923 20.896,51.419 20.493,51.886 C20.056,52.398 19.516,53.024 19.067,53.49 C17.993,52.362 17.1,51.542 16.309,50.964 C16.509,50.502 16.624,49.893 16.515,48.908 L16.515,48.908 Z M25.484,118.071 C27.085,115.293 30.655,111.263 34.79,106.597 C41.606,98.907 50.086,89.336 53.944,80.282 L54.083,79.875 C55.392,74.766 54.443,69.138 51.482,64.432 C48.803,60.18 44.766,57.16 40.685,56.355 C40.312,56.265 39.814,56.213 39.292,56.213 C36.093,56.213 32.204,58.309 28.088,60.528 C25.154,62.109 21.831,63.902 20.052,64.061 C19.572,64.078 18.707,64.07 17.73,62.879 C16.725,61.658 16.167,59.879 16.032,58.583 C16.388,58.977 16.746,59.308 17.373,59.523 C20.568,60.531 22.541,58.22 24.8,55.593 C25.177,55.157 25.575,54.696 26.001,54.225 C26.49,53.684 27.313,53.296 28.109,52.921 C29.409,52.31 31.191,51.475 31.499,49.396 C31.824,47.23 30.106,45.683 29.461,45.096 C27.337,43.242 24.905,42.36 21.978,42.36 C19.99,42.36 18.039,42.775 16.316,43.144 C15.064,43.411 13.883,43.662 12.857,43.729 L11.253,43.835 L10.672,43.388 C10.307,43.175 9.982,42.871 9.685,42.455 C7.929,40.19 8.135,37.625 8.138,37.6 L8.303,36.192 L7.272,35.216 C7.049,34.99 6.699,34.45 6.704,34.149 C6.704,33.999 6.937,33.76 7.011,33.688 C8.241,32.335 11.107,31.026 13.874,29.757 C17.105,28.278 20.764,26.599 23.708,24.266 C26.353,22.164 28.081,20.278 29.338,18.904 C30.63,17.49 31.337,16.744 32.021,16.564 C32.85,16.343 33.831,16.294 34.971,16.237 C36.886,16.147 39.265,16.03 41.79,14.939 C42.307,14.718 44.586,13.938 52.179,13.27 L54.222,13.09 L59.318,9.45 C60.992,7.517 62.297,6.83 62.904,6.83 C62.998,6.83 63.19,6.83 63.541,7.146 C64.592,8.094 65.262,11.966 65.211,14.852 L65.2,15.329 L65.35,15.782 C65.887,17.431 67.613,19.032 72.528,23.411 C76.284,26.76 80.959,30.927 85.188,35.546 C93.267,44.38 98.09,58.883 98.09,74.34 C98.09,91.848 92.63,111.371 89.376,121.451 C87.564,127.064 88.801,131.547 90.214,134.548 L19.736,134.548 C20.56,130.379 22.265,123.683 25.484,118.071 L25.484,118.071 Z M108.569,187.61 C106.015,183.536 101.768,177.395 97.266,173.621 C94.414,171.233 91.741,169.4 89.589,167.932 C87.598,166.568 84.586,164.968 84.586,163.755 C84.586,161.754 85.469,158.995 91.573,152.618 L94.482,152.618 C99.247,152.618 102.391,148.412 102.391,143.585 C102.391,139.791 99.393,137.016 97.64,135.72 C97.168,135.146 96.806,134.689 96.68,134.488 C95.312,132.293 93.026,128.626 94.778,123.196 C98.135,112.798 103.768,92.628 103.768,74.34 C103.768,57.502 98.386,41.565 89.377,31.711 C84.95,26.879 80.154,22.608 76.305,19.172 C74.147,17.249 71.736,15.099 70.887,14.098 C70.843,11.631 70.408,5.689 67.346,2.932 C64.989,0.799 61.838,0.578 58.824,2.394 C58.195,1.181 57.243,0.352 55.764,0.352 C55.764,0.352 55.05,0.186 54.553,0.352 C54.057,0.518 50.451,6.001 49.79,7.791 C44.785,8.3 41.343,8.947 39.538,9.726 C37.956,10.407 36.373,10.486 34.695,10.567 C33.355,10.632 31.964,10.699 30.547,11.079 C28.233,11.697 26.805,13.26 25.146,15.07 C23.95,16.376 22.464,18.001 20.174,19.821 C17.772,21.726 14.588,23.184 11.505,24.593 C7.912,26.241 4.806,27.659 2.918,29.752 C1.357,31.261 1.011,33.013 1.019,34.191 C1.027,35.938 1.788,37.366 2.447,38.281 C2.495,39.991 2.934,43.034 5.131,45.859 C5.747,46.717 6.534,47.481 7.433,48.067 C8.165,48.835 9.597,50.312 10.754,51.365 C10.328,52.122 10.081,53.168 10.745,55.334 C10.628,55.65 10.535,55.991 10.464,56.354 C9.865,59.405 11.098,63.767 13.336,66.493 C15.254,68.826 17.713,69.977 20.554,69.723 C23.495,69.46 27.032,67.552 30.78,65.53 C33.782,63.912 37.521,61.895 39.287,61.895 C42.117,62.433 44.835,64.555 46.669,67.467 C48.763,70.79 49.472,74.713 48.626,78.266 C45.085,86.415 37.025,95.513 30.533,102.832 C26.191,107.732 22.443,111.961 20.556,115.248 C16.459,122.388 14.593,130.732 13.825,135.27 C12.245,136.548 9.797,139.57 9.797,143.587 C9.797,147.779 12.35,152.62 15.792,152.62 L20.952,152.62 C24.527,156.735 28.033,162.191 28.033,163.757 C27.825,164.499 25.229,166.26 23.329,167.544 C20.987,169.131 18.071,171.104 15.252,173.714 C11.631,177.065 7.852,182.652 5.331,186.725 C2.811,187.849 0,190.337 0,194.92 C0,197.742 1.722,202.159 10.644,202.159 C19.565,202.159 102.759,202.225 103.346,202.225 C109.071,202.225 112.623,199.428 112.623,194.92 C112.622,191.243 110.669,188.931 108.569,187.61 L108.569,187.61 Z" id="Fill-7" fill="#FFFFFF" mask="url(#mask-2)"></path>
	    </g>
	</g>
    </g>
</svg>